<mxfile host="65bd71144e">
    <diagram id="IKoPhro0632xx9iPFfSu" name="OLED">
        <mxGraphModel dx="1744" dy="1251" grid="1" gridSize="5" guides="1" tooltips="1" connect="1" arrows="1" fold="1" page="0" pageScale="1" pageWidth="850" pageHeight="1100" math="0" shadow="0">
            <root>
                <mxCell id="0"/>
                <mxCell id="1" parent="0"/>
                <mxCell id="2" value="" style="rounded=0;whiteSpace=wrap;html=1;fillColor=#fad9d5;strokeColor=#ae4132;" parent="1" vertex="1">
                    <mxGeometry x="145" y="89" width="580" height="468" as="geometry"/>
                </mxCell>
                <mxCell id="3" value="&lt;font style=&quot;font-size: 26px;&quot;&gt;Graph&lt;br&gt;heart rate&lt;br&gt;&lt;/font&gt;" style="rounded=0;whiteSpace=wrap;html=1;opacity=40;imageWidth=24;imageHeight=24;" parent="1" vertex="1">
                    <mxGeometry x="375" y="106" width="335" height="334" as="geometry"/>
                </mxCell>
                <mxCell id="6" value="&lt;p style=&quot;line-height: 50%;&quot;&gt;&lt;font style=&quot;font-size: 26px;&quot;&gt;Connectivity&lt;/font&gt;&lt;/p&gt;" style="rounded=0;whiteSpace=wrap;html=1;fontSize=8;opacity=40;fillColor=#000000;strokeColor=#FFFFFF;" parent="1" vertex="1">
                    <mxGeometry x="160" y="110" width="200" height="165" as="geometry"/>
                </mxCell>
                <mxCell id="7" value="" style="endArrow=classic;startArrow=classic;html=1;" parent="1" edge="1">
                    <mxGeometry width="50" height="50" relative="1" as="geometry">
                        <mxPoint x="750" y="560" as="sourcePoint"/>
                        <mxPoint x="750" y="90" as="targetPoint"/>
                    </mxGeometry>
                </mxCell>
                <mxCell id="20" value="&lt;span style=&quot;font-size: 26px;&quot;&gt;1200&lt;/span&gt;" style="edgeLabel;html=1;align=center;verticalAlign=middle;resizable=0;points=[];fontSize=2;" parent="7" vertex="1" connectable="0">
                    <mxGeometry x="-0.0533" y="1" relative="1" as="geometry">
                        <mxPoint x="36" y="-8" as="offset"/>
                    </mxGeometry>
                </mxCell>
                <mxCell id="9" value="" style="endArrow=classic;startArrow=classic;html=1;fontSize=5;" parent="1" edge="1">
                    <mxGeometry width="50" height="50" relative="1" as="geometry">
                        <mxPoint x="150" y="65" as="sourcePoint"/>
                        <mxPoint x="730" y="65" as="targetPoint"/>
                    </mxGeometry>
                </mxCell>
                <mxCell id="21" value="2000" style="edgeLabel;html=1;align=center;verticalAlign=middle;resizable=0;points=[];fontSize=26;" parent="9" vertex="1" connectable="0">
                    <mxGeometry x="-0.0859" relative="1" as="geometry">
                        <mxPoint x="20" as="offset"/>
                    </mxGeometry>
                </mxCell>
                <mxCell id="14" value="&lt;p style=&quot;line-height: 50%;&quot;&gt;&lt;font style=&quot;font-size: 26px;&quot;&gt;Threshold&lt;/font&gt;&lt;/p&gt;" style="rounded=0;whiteSpace=wrap;html=1;fontSize=8;opacity=40;fillColor=#000000;strokeColor=#FFFFFF;" parent="1" vertex="1">
                    <mxGeometry x="160" y="290" width="200" height="150" as="geometry"/>
                </mxCell>
                <mxCell id="15" value="&lt;p style=&quot;line-height: 50%;&quot;&gt;&lt;font style=&quot;font-size: 26px;&quot;&gt;Notification&lt;/font&gt;&lt;/p&gt;" style="rounded=0;whiteSpace=wrap;html=1;fontSize=8;opacity=40;fillColor=#000000;strokeColor=#FFFFFF;" parent="1" vertex="1">
                    <mxGeometry x="160" y="460" width="200" height="80" as="geometry"/>
                </mxCell>
                <mxCell id="16" value="&lt;p style=&quot;line-height: 50%;&quot;&gt;&lt;span style=&quot;font-size: 26px;&quot;&gt;Record&lt;/span&gt;&lt;/p&gt;" style="rounded=0;whiteSpace=wrap;html=1;fontSize=8;opacity=40;fillColor=#000000;strokeColor=#FFFFFF;" parent="1" vertex="1">
                    <mxGeometry x="375" y="460" width="335" height="80" as="geometry"/>
                </mxCell>
                <mxCell id="22" value="" style="rounded=0;whiteSpace=wrap;html=1;fillColor=#fad9d5;strokeColor=#ae4132;" vertex="1" parent="1">
                    <mxGeometry x="145" y="664" width="580" height="468" as="geometry"/>
                </mxCell>
                <mxCell id="23" value="&lt;font style=&quot;font-size: 26px;&quot;&gt;Raw PPG signal&lt;br&gt;&lt;/font&gt;" style="rounded=0;whiteSpace=wrap;html=1;opacity=40;imageWidth=24;imageHeight=24;" vertex="1" parent="1">
                    <mxGeometry x="375" y="681" width="335" height="219" as="geometry"/>
                </mxCell>
                <mxCell id="24" value="&lt;p style=&quot;line-height: 50%;&quot;&gt;&lt;span style=&quot;font-size: 26px;&quot;&gt;Set RTC&lt;/span&gt;&lt;/p&gt;" style="rounded=0;whiteSpace=wrap;html=1;fontSize=8;opacity=40;fillColor=#000000;strokeColor=#FFFFFF;" vertex="1" parent="1">
                    <mxGeometry x="160" y="685" width="200" height="165" as="geometry"/>
                </mxCell>
                <mxCell id="25" value="" style="endArrow=classic;startArrow=classic;html=1;" edge="1" parent="1">
                    <mxGeometry width="50" height="50" relative="1" as="geometry">
                        <mxPoint x="750" y="1135" as="sourcePoint"/>
                        <mxPoint x="750" y="665" as="targetPoint"/>
                    </mxGeometry>
                </mxCell>
                <mxCell id="26" value="&lt;span style=&quot;font-size: 26px;&quot;&gt;1200&lt;/span&gt;" style="edgeLabel;html=1;align=center;verticalAlign=middle;resizable=0;points=[];fontSize=2;" vertex="1" connectable="0" parent="25">
                    <mxGeometry x="-0.0533" y="1" relative="1" as="geometry">
                        <mxPoint x="36" y="-8" as="offset"/>
                    </mxGeometry>
                </mxCell>
                <mxCell id="27" value="" style="endArrow=classic;startArrow=classic;html=1;fontSize=5;" edge="1" parent="1">
                    <mxGeometry width="50" height="50" relative="1" as="geometry">
                        <mxPoint x="150" y="640" as="sourcePoint"/>
                        <mxPoint x="730" y="640" as="targetPoint"/>
                    </mxGeometry>
                </mxCell>
                <mxCell id="28" value="2000" style="edgeLabel;html=1;align=center;verticalAlign=middle;resizable=0;points=[];fontSize=26;" vertex="1" connectable="0" parent="27">
                    <mxGeometry x="-0.0859" relative="1" as="geometry">
                        <mxPoint x="20" as="offset"/>
                    </mxGeometry>
                </mxCell>
                <mxCell id="29" value="&lt;p style=&quot;line-height: 405%;&quot;&gt;&lt;span style=&quot;font-size: 26px;&quot;&gt;Set Filter coefficients&lt;/span&gt;&lt;/p&gt;" style="rounded=0;whiteSpace=wrap;html=1;fontSize=8;opacity=40;fillColor=#000000;strokeColor=#FFFFFF;" vertex="1" parent="1">
                    <mxGeometry x="160" y="865" width="200" height="150" as="geometry"/>
                </mxCell>
                <mxCell id="30" value="&lt;p style=&quot;line-height: 50%;&quot;&gt;&lt;font style=&quot;font-size: 26px;&quot;&gt;Notification&lt;/font&gt;&lt;/p&gt;" style="rounded=0;whiteSpace=wrap;html=1;fontSize=8;opacity=40;fillColor=#000000;strokeColor=#FFFFFF;" vertex="1" parent="1">
                    <mxGeometry x="160" y="1035" width="200" height="80" as="geometry"/>
                </mxCell>
                <mxCell id="32" value="&lt;span style=&quot;font-size: 26px;&quot;&gt;Filtered PPG signal&lt;/span&gt;" style="rounded=0;whiteSpace=wrap;html=1;opacity=40;imageWidth=24;imageHeight=24;" vertex="1" parent="1">
                    <mxGeometry x="375" y="920" width="335" height="199" as="geometry"/>
                </mxCell>
            </root>
        </mxGraphModel>
    </diagram>
    <diagram id="Yfab8qHF7EpSdcHT0URQ" name="App">
        <mxGraphModel dx="538" dy="371" grid="1" gridSize="10" guides="1" tooltips="1" connect="1" arrows="1" fold="1" page="1" pageScale="1" pageWidth="850" pageHeight="1100" math="0" shadow="0">
            <root>
                <mxCell id="0"/>
                <mxCell id="1" parent="0"/>
                <mxCell id="KxarDFGGs3me0MCU-3dp-2" value="" style="rounded=0;whiteSpace=wrap;html=1;fontSize=4;fillColor=#000000;" vertex="1" parent="1">
                    <mxGeometry x="320" y="360" width="400" height="240" as="geometry"/>
                </mxCell>
                <mxCell id="KxarDFGGs3me0MCU-3dp-3" value="" style="rounded=0;whiteSpace=wrap;html=1;fontSize=4;fillColor=#000000;" vertex="1" parent="1">
                    <mxGeometry x="460" y="450" width="120" height="60" as="geometry"/>
                </mxCell>
            </root>
        </mxGraphModel>
    </diagram>
</mxfile>